<?xml version="1.0" encoding="utf-8"?>
<!-- Generator: Adobe Illustrator 24.1.0, SVG Export Plug-In . SVG Version: 6.00 Build 0)  -->
<svg version="1.1" id="Layer_1" xmlns="http://www.w3.org/2000/svg" xmlns:xlink="http://www.w3.org/1999/xlink" x="0px" y="0px"
	 viewBox="0 0 71 58" style="enable-background:new 0 0 71 58;" xml:space="preserve">
<style type="text/css">
	.st0{fill-rule:evenodd;clip-rule:evenodd;fill:#EEA327;}
	.st1{fill-rule:evenodd;clip-rule:evenodd;fill:#9CCFF7;}
	.st2{fill-rule:evenodd;clip-rule:evenodd;fill:#B9E0FF;}
	.st3{fill-rule:evenodd;clip-rule:evenodd;fill:#48A1E6;}
	.st4{fill-rule:evenodd;clip-rule:evenodd;fill:#83C2F3;}
	.st5{fill-rule:evenodd;clip-rule:evenodd;fill:#075EA0;fill-opacity:0.2319;}
	.st6{fill-rule:evenodd;clip-rule:evenodd;fill:#0C7ED6;}
	.st7{fill-rule:evenodd;clip-rule:evenodd;fill:#FFFFFF;filter:url(#Adobe_OpacityMaskFilter);}
	.st8{mask:url(#mask0_1_);}
	.st9{fill-rule:evenodd;clip-rule:evenodd;fill-opacity:8.806050e-02;}
	.st10{fill-rule:evenodd;clip-rule:evenodd;fill:#005699;fill-opacity:0.1527;}
	.st11{fill-rule:evenodd;clip-rule:evenodd;fill:#FFCD61;}
	.st12{fill-rule:evenodd;clip-rule:evenodd;fill:#FFFFFF;filter:url(#Adobe_OpacityMaskFilter_1_);}
	.st13{mask:url(#mask1_1_);}
	.st14{fill:none;stroke:#FFFFFF;stroke-width:1.525;stroke-linecap:round;}
</style>
<path class="st0" d="M13.3,15.6c0.6-1.1,2-1.5,3.1-0.8c1.1,0.6,1.5,2,0.8,3.1l-6.1,10.5c-0.6,1.1-2,1.5-3.1,0.8
	c-1.1-0.6-1.5-2-0.8-3.1L13.3,15.6z"/>
<path class="st0" d="M25.5,17.9c-0.6-1.1-0.3-2.5,0.8-3.1c1.1-0.6,2.5-0.3,3.1,0.8l6.1,10.5c0.6,1.1,0.3,2.5-0.8,3.1
	c-1.1,0.6-2.5,0.3-3.1-0.8L25.5,17.9z"/>
<path class="st0" d="M27.4,14.4c1.3,0,2.3,1,2.3,2.3c0,1.3-1,2.3-2.3,2.3H15.2c-1.3,0-2.3-1-2.3-2.3c0-1.3,1-2.3,2.3-2.3H27.4z"/>
<path class="st1" d="M0,25.8c0-0.8,0.7-1.5,1.5-1.5h53.4c0.8,0,1.5,0.7,1.5,1.5v6.1c0,0.8-0.7,1.5-1.5,1.5H1.5
	c-0.8,0-1.5-0.7-1.5-1.5V25.8z"/>
<path class="st2" d="M10.7,25.8c0-0.8,0.7-1.5,1.5-1.5h41.2c0.8,0,1.5,0.7,1.5,1.5v6.1c0,0.8-0.7,1.5-1.5,1.5H12.2
	c-0.8,0-1.5-0.7-1.5-1.5V25.8z"/>
<path class="st3" d="M41.2,33.4l-3.4,21c-0.2,1.5-1.5,2.6-3,2.6H9.5c-1.5,0-2.8-1.1-3-2.6l-3.4-21H41.2z"/>
<path class="st4" d="M51.9,33.4l-3.4,21c-0.2,1.5-1.5,2.6-3,2.6H20.1c-1.5,0-2.8-1.1-3-2.6l-3.4-21H51.9z"/>
<path class="st5" d="M3.1,33.4h10.7l0.8,4.8L3.6,36.4L3.1,33.4z"/>
<path class="st5" d="M13.7,33.4l1.1,6.8L50,44.9l1.9-11.5H13.7z"/>
<g>
	<path class="st6" d="M30.5,39.5c0-1.3,1-2.3,2.3-2.3c1.3,0,2.3,1,2.3,2.3v10.7c0,1.3-1,2.3-2.3,2.3c-1.3,0-2.3-1-2.3-2.3V39.5z"/>
</g>
<g>
	<path class="st6" d="M38.9,39.5c0-1.3,1-2.3,2.3-2.3c1.3,0,2.3,1,2.3,2.3v10.7c0,1.3-1,2.3-2.3,2.3c-1.3,0-2.3-1-2.3-2.3V39.5z"/>
</g>
<g>
	<path class="st6" d="M22.1,39.5c0-1.3,1-2.3,2.3-2.3c1.3,0,2.3,1,2.3,2.3v10.7c0,1.3-1,2.3-2.3,2.3c-1.3,0-2.3-1-2.3-2.3V39.5z"/>
</g>
<defs>
	<filter id="Adobe_OpacityMaskFilter" filterUnits="userSpaceOnUse" x="16.8" y="10.6" width="45.7" height="32">
		<feColorMatrix  type="matrix" values="1 0 0 0 0  0 1 0 0 0  0 0 1 0 0  0 0 0 1 0"/>
	</filter>
</defs>
<mask maskUnits="userSpaceOnUse" x="16.8" y="10.6" width="45.7" height="32" id="mask0_1_">
	<path class="st7" d="M10.7,25.8c0-0.8,0.7-1.5,1.5-1.5h41.2c0.8,0,1.5,0.7,1.5,1.5v6.1c0,0.8-0.7,1.5-1.5,1.5H12.2
		c-0.8,0-1.5-0.7-1.5-1.5V25.8z"/>
</mask>
<g class="st8">
	<path class="st9" d="M20.6,31.1c2.1,0,3.8-1.7,3.8-3.8c0-2.1-1.7-3.8-3.8-3.8c-2.1,0-3.8,1.7-3.8,3.8
		C16.8,29.4,18.5,31.1,20.6,31.1z"/>
	<path class="st9" d="M45,31.1c2.1,0,3.8-1.7,3.8-3.8c0-2.1-1.7-3.8-3.8-3.8c-2.1,0-3.8,1.7-3.8,3.8C41.2,29.4,42.9,31.1,45,31.1z"
		/>
	<path class="st10" d="M46.5,42.5c8.8,0,16-7.2,16-16s-7.2-16-16-16c-8.8,0-16,7.2-16,16S37.7,42.5,46.5,42.5z"/>
</g>
<path class="st11" d="M24.8,15.6c0.6-1.1,2-1.5,3.1-0.8c1.1,0.6,1.5,2,0.8,3.1l-6.1,10.5c-0.6,1.1-2,1.5-3.1,0.8
	c-1.1-0.6-1.5-2-0.8-3.1L24.8,15.6z"/>
<path class="st11" d="M37,17.9c-0.6-1.1-0.3-2.5,0.8-3.1c1.1-0.6,2.5-0.3,3.1,0.8L47,26.1c0.6,1.1,0.3,2.5-0.8,3.1
	c-1.1,0.6-2.5,0.3-3.1-0.8L37,17.9z"/>
<path class="st11" d="M38.9,14.4c1.3,0,2.3,1,2.3,2.3c0,1.3-1,2.3-2.3,2.3H26.7c-1.3,0-2.3-1-2.3-2.3c0-1.3,1-2.3,2.3-2.3H38.9z"/>
<defs>
	<filter id="Adobe_OpacityMaskFilter_1_" filterUnits="userSpaceOnUse" x="32.8" y="10.6" width="32" height="32">
		<feColorMatrix  type="matrix" values="1 0 0 0 0  0 1 0 0 0  0 0 1 0 0  0 0 0 1 0"/>
	</filter>
</defs>
<mask maskUnits="userSpaceOnUse" x="32.8" y="10.6" width="32" height="32" id="mask1_1_">
	<path class="st12" d="M51.9,33.4l-3.4,21c-0.2,1.5-1.5,2.6-3,2.6H20.1c-1.5,0-2.8-1.1-3-2.6l-3.4-21H51.9z"/>
</mask>
<g class="st13">
	<path class="st10" d="M48.8,42.5c8.8,0,16-7.2,16-16s-7.2-16-16-16c-8.8,0-16,7.2-16,16S40,42.5,48.8,42.5z"/>
</g>
<path class="st14" d="M19.1,33.4h10.7"/>
<path class="st14" d="M32.8,33.4h2.4"/>
</svg>
